<?xml version="1.0" encoding="utf-8"?>
<!-- Generator: Adobe Illustrator 24.1.2, SVG Export Plug-In . SVG Version: 6.00 Build 0)  -->
<svg version="1.1" id="Ebene_1" xmlns="http://www.w3.org/2000/svg" xmlns:xlink="http://www.w3.org/1999/xlink" x="0px" y="0px"
	 viewBox="0 0 241 241" style="enable-background:new 0 0 241 241;" xml:space="preserve">
<style type="text/css">
	.st0{display:none;fill:#FFFFFF;}
	.st1{fill:#f86f41;}
</style>
<path id="White" class="st0" d="M120.5,0.78c-66.2,0-120,53.8-120,120s53.8,120,120,120s120-53.8,120-120S186.7,0.78,120.5,0.78z
	 M120.5,233.78c-62.3,0-113-50.7-113-113s50.7-113,113-113s113,50.7,113,113S182.8,233.78,120.5,233.78z"/>

<path class="st1" d="M175.59,81.85h-12.1c-1.41-8.25-8.57-14.56-17.21-14.56s-15.8,6.31-17.21,14.56h-14.72
	c-1.41-8.25-8.57-14.56-17.21-14.56s-15.8,6.31-17.21,14.56H65.66c-1.96,0-3.55,1.59-3.55,3.55v85.1c0,1.96,1.59,3.55,3.55,3.55
	h109.93c1.96,0,3.55-1.59,3.55-3.55v-85.1C179.13,83.43,177.55,81.85,175.59,81.85z M146.27,74.38c4.71,0,8.66,3.17,9.94,7.47
	h-19.88C137.61,77.54,141.56,74.38,146.27,74.38z M97.12,74.38c4.71,0,8.66,3.17,9.94,7.47H87.18
	C88.46,77.54,92.41,74.38,97.12,74.38z M90.48,166.95H69.21v-24.82h21.28V166.95z M90.48,138.58H69.21v-24.82h21.28V138.58z
	 M118.85,166.95H94.03v-24.82h24.82V166.95z M118.85,138.58H94.03v-24.82h24.82V138.58z M147.22,166.95H122.4v-24.82h24.82V166.95z
	 M147.22,138.58H122.4v-24.82h24.82V138.58z M172.04,166.95h-21.28v-24.82h21.28V166.95z M172.04,138.58h-21.28v-24.82h21.28V138.58
	z M172.04,110.21H69.21V88.94h10.95c1.87,7.65,8.74,13.37,16.96,13.37c0.36,0,0.71-0.01,1.05-0.04c1.95-0.16,3.4-1.87,3.24-3.83
	c-0.16-1.95-1.85-3.46-3.83-3.24c-0.15,0.01-0.31,0.01-0.46,0.01c-4.27,0-7.94-2.59-9.55-6.28h41.74
	c1.87,7.65,8.74,13.37,16.96,13.37c0.36,0,0.71-0.01,1.05-0.04c1.95-0.16,3.4-1.87,3.24-3.83c-0.16-1.95-1.85-3.46-3.83-3.24
	c-0.15,0.01-0.31,0.01-0.46,0.01c-4.27,0-7.94-2.59-9.55-6.28h35.32V110.21z"/>
</svg>
