<?xml version="1.0" encoding="utf-8"?>
<!-- Generator: Adobe Illustrator 24.1.2, SVG Export Plug-In . SVG Version: 6.00 Build 0)  -->
<svg version="1.1" id="Ebene_1" xmlns="http://www.w3.org/2000/svg" xmlns:xlink="http://www.w3.org/1999/xlink" x="0px" y="0px"
	 viewBox="0 0 241 241" style="enable-background:new 0 0 241 241;" xml:space="preserve">
<style type="text/css">
	.st0{display:none;fill:#FFFFFF;}
	.st1{fill:#f86f41;}
</style>
<path id="White" class="st0" d="M120.5,0.78c-66.2,0-120,53.8-120,120s53.8,120,120,120s120-53.8,120-120S186.7,0.78,120.5,0.78z
	 M120.5,233.78c-62.3,0-113-50.7-113-113s50.7-113,113-113s113,50.7,113,113S182.8,233.78,120.5,233.78z"/>

<g>
	<path class="st1" d="M127.94,133.04c0-4.24-3.43-7.72-7.66-7.72c-4.23,0-7.66,3.32-7.66,7.56c0,2.72,1.43,4.89,3.57,6.25
		l-2.51,13.09h13.11l-2.59-13.02C126.43,137.86,127.94,135.84,127.94,133.04z"/>
	<path class="st1" d="M151.61,112.99h-6.79V97.51c0-12.54-10.38-21.99-24.14-21.99c-13.76,0-24.14,9.31-24.14,21.65v15.83h-6.41
		c-1.67,0-3.02,1.35-3.02,3.02v47.15c0,1.66,1.35,3.02,3.02,3.02h61.48c1.67,0,3.02-1.35,3.02-3.02v-47.15
		C154.63,114.34,153.28,112.99,151.61,112.99z M102.58,97.16c0-9.05,7.61-15.61,18.1-15.61c10.49,0,18.1,6.71,18.1,15.96v15.48
		h-36.21V97.16z M148.59,160.14H93.15v-41.11h55.44V160.14z"/>
</g>
</svg>
