<?xml version="1.0" encoding="utf-8"?>
<!-- Generator: Adobe Illustrator 24.2.3, SVG Export Plug-In . SVG Version: 6.00 Build 0)  -->
<svg version="1.1" id="Ebene_1" xmlns="http://www.w3.org/2000/svg" xmlns:xlink="http://www.w3.org/1999/xlink" x="0px" y="0px"
	 viewBox="0 0 241 241" style="enable-background:new 0 0 241 241;" xml:space="preserve">
<style type="text/css">
	.st0{display:none;fill:#FFFFFF;}
	.st1{fill:#f86f41;}
	.st2{fill-rule:evenodd;clip-rule:evenodd;fill:none;stroke:#f86f41;stroke-width:5;stroke-miterlimit:10;}
</style>
<path id="White" class="st0" d="M120.5,0.8c-66.2,0-120,53.8-120,120s53.8,120,120,120s120-53.8,120-120S186.7,0.8,120.5,0.8z
	 M120.5,233.8c-62.3,0-113-50.7-113-113s50.7-113,113-113s113,50.7,113,113S182.8,233.8,120.5,233.8z"/>

<g>
	<path class="st2" d="M77.4,115.3l-0.1,8.9h16.1c3.4,0,6.2,2.8,6.2,6.2v6.2h-0.1v24.2c0,3.4-2.8,6.2-6.2,6.2h-6.2v-28.1
		c0-2.6,0.5-2.2-2-2.2H69.2v0h-7.9c-5.1,0-9.3-4.2-9.3-9.3V96.7c0-5.2,4.3-9.5,9.5-9.5h4.7c7.4,0,8.2,3.6,10,7.3l7.9,3.1
		c5.7,2.6,4.3,3.1,8.1-1.7l5.1-6.3c2.5-3.9,12.2,0.2,8.1,6.8l-7.3,10c-3,4.2-7.1,4.7-12,2.7l-8.5-3L77.4,115.3L77.4,115.3z
		 M197,161.1c-0.1-0.4-0.2-0.7-0.5-1c-2.1-2.2-4.8-3.9-7.9-5.1c-2.2-0.8-4.5-1.4-7-1.7l0.5-7.4h16.8c1.7,0,3.2-1.4,3.2-3.2
		c0-13.2-3.1-23.1,0-38c0.9-4.4-8.2-5.1-8.2,0.2v33.7h-31.7c-1.7,0-3.2,2.3-3.2,4.1v2.5c0,0.4,0.3,0.7,0.7,0.7h16.8l0.7,7.3
		c-2.6,0.2-5.1,0.7-7.4,1.5c-3,1.1-5.6,2.7-7.7,4.6c-0.5,0.5-0.7,1.2-0.5,1.8c-0.8,0.6-1.4,1.2-1.4,2.7c0,1.5,1.5,3.4,3.4,3.4
		s3.4-1.9,3.4-3.4c0-1.5-0.5-2.1-1.4-2.7c1.6-1.2,3.4-2.2,5.4-3c2.2-0.8,4.6-1.3,7.1-1.4l0.4,3.7l0,0.2c-1.4,0.4-2.5,1.5-2.5,3.3
		s1.5,3.4,3.4,3.4s3.4-1.7,3.4-3.4s-1-2.8-2.4-3.2l0-0.2l0.3-3.6c2.4,0.2,4.7,0.7,6.8,1.5h0c2,0.8,3.8,1.8,5.4,3.1
		c-0.6,0.6-1,1-1,2.4s1.5,3.4,3.4,3.4c1.9,0,3.4-1.9,3.4-3.4C198.4,162.3,197.9,161.7,197,161.1L197,161.1z M169.9,58.1
		c-7.1,0-12.9,5.8-12.9,12.9s5.8,12.9,12.9,12.9c7.1,0,12.9-5.8,12.9-12.9C182.9,63.9,177.1,58.1,169.9,58.1L169.9,58.1z
		 M164.6,108.8l0.3,15.3h-16.1c-3.4,0-6.2,2.8-6.2,6.2v6.2h0.1v24.2c0,3.4,2.8,6.2,6.2,6.2h6.2v-28.6c0-2.7,1-1.8,4.1-1.8h13.8v0
		h7.9c5.1,0,9.3-4.2,9.3-9.3V94.9c0-5.2-4.3-9.5-9.5-9.5H176c-9.7,0-8.2,6.7-12.5,10.9c-4.3,4.2-3.2,4.6-9,4.6h-12.5
		c-7.5,0-9.3,9.8,1.3,9.8h11.5C159.9,110.8,160.3,111.6,164.6,108.8L164.6,108.8z M152.3,112.8c-20.2,0-35.8,0-55.9,0
		c-0.3,0-0.5,0.3-0.5,0.5v7.9c0,0.3,0.3,0.5,0.5,0.5c10.5,0,12.9,0,23.5,0v48.3c0,0.4,0.3,0.7,0.7,0.7h0.3h0h7.7h0h0.3
		c0.4,0,0.7-0.3,0.7-0.7v-48.3c7,0,15.7,0,22.7,0c0.3,0,0.5-0.3,0.5-0.5v-7.9C152.8,113,152.6,112.8,152.3,112.8L152.3,112.8z
		 M40.4,106.5h4.5c0.9,0,1.5,0.8,1.7,1.7c1.7,10.7,2.6,21.5,2.6,32.2H80c1.2,0,2.2,1,2.2,2.2v4.5h-1.8V170c0,0.4-0.3,0.7-0.7,0.7
		h-5.9c-0.4,0-0.7-0.3-0.7-0.7V160H47.9c-0.4,3-0.8,6.1-1.4,9.1c-0.2,0.9-0.8,1.7-1.7,1.7h-4.5c-0.9,0-1.9-0.8-1.7-1.7
		c5.9-20.7,4.7-40.9,0-60.9C38.5,107.3,39.5,106.5,40.4,106.5L40.4,106.5z M73.2,157v-9.8H49.1c-0.1,4.2-0.4,5.7-0.9,9.8H73.2
		L73.2,157z M65.8,57.6c7.1,0,12.9,5.8,12.9,12.9s-5.8,12.9-12.9,12.9s-12.9-5.8-12.9-12.9S58.6,57.6,65.8,57.6L65.8,57.6z"/>
</g>
</svg>
