<?xml version="1.0" encoding="utf-8"?>
<!-- Generator: Adobe Illustrator 24.1.2, SVG Export Plug-In . SVG Version: 6.00 Build 0)  -->
<svg version="1.1" id="Ebene_1" xmlns="http://www.w3.org/2000/svg" xmlns:xlink="http://www.w3.org/1999/xlink" x="0px" y="0px"
	 viewBox="0 0 241 241" style="enable-background:new 0 0 241 241;" xml:space="preserve">
<style type="text/css">
	.st0{display:none;fill:#FFFFFF;}
	.st1{fill:#f86f41;}
</style>
<path id="White" class="st0" d="M120.5,0.78c-66.2,0-120,53.8-120,120s53.8,120,120,120s120-53.8,120-120S186.7,0.78,120.5,0.78z
	 M120.5,233.78c-62.3,0-113-50.7-113-113s50.7-113,113-113s113,50.7,113,113S182.8,233.78,120.5,233.78z"/>

<g>
	<path class="st1" d="M127.37,158.74c-2.14,0-3.87,1.74-3.87,3.87s1.74,3.87,3.87,3.87c2.14,0,3.87-1.73,3.87-3.87
		C131.25,160.47,129.51,158.74,127.37,158.74"/>
</g>
<rect x="121.18" y="96.05" class="st1" width="12.39" height="3.1"/>
<g>
	<path class="st1" d="M97.94,168.84c-1.5,0-2.71,1.21-2.71,2.71c0,1.5,1.21,2.71,2.71,2.71c1.5,0,2.71-1.21,2.71-2.71
		C100.65,170.05,99.44,168.84,97.94,168.84"/>
	<path class="st1" d="M120.02,72.35c1.07,0,1.94-0.87,1.94-1.94s-0.87-1.94-1.94-1.94c-1.07,0-1.94,0.87-1.94,1.94
		C118.08,71.49,118.95,72.35,120.02,72.35"/>
	<path class="st1" d="M69.68,66.93h100.67c2.13,0,3.87,1.74,3.87,3.87v2.73H65.81V70.8C65.81,68.67,67.54,66.93,69.68,66.93
		 M65.81,76.63h108.42v58.97h4.65V70.8c0-4.7-3.82-8.52-8.52-8.52H69.68c-4.7,0-8.52,3.82-8.52,8.52v64.28h4.65V76.63z"/>
	<path class="st1" d="M188.13,148.77c0,2.13-1.74,3.87-3.87,3.87h-23.59v-7.74h27.46V148.77z M152.15,168.07h-36.4v-10.84h40.27
		v6.97C156.03,166.33,154.29,168.07,152.15,168.07 M107.24,175.81H88.65c-2.14,0-3.87-1.74-3.87-3.87v-4.65h26.33v4.65
		C111.11,174.07,109.37,175.81,107.24,175.81 M55.74,152.64c-2.13,0-3.87-1.74-3.87-3.87v-3.87h28.27v7.74H55.74z M111.11,164.2
		H84.78v-35.62h26.33V164.2z M88.65,120.05h18.59c2.13,0,3.87,1.74,3.87,3.87v1.55H84.78v-1.55
		C84.78,121.79,86.52,120.05,88.65,120.05 M98.72,104.57h57.31v49.56h-40.27v-30.2c0-4.7-3.82-8.52-8.52-8.52h-8.52V104.57z
		 M102.59,92.95h49.56c2.14,0,3.87,1.74,3.87,3.87v4.65H98.72v-4.65C98.72,94.69,100.45,92.95,102.59,92.95 M160.67,140.25V96.82
		c0-4.7-3.82-8.52-8.52-8.52h-49.56c-4.7,0-8.52,3.82-8.52,8.52v18.59h-5.42c-4.7,0-8.52,3.82-8.52,8.52v16.32H47.22v8.52
		c0,4.7,3.82,8.52,8.52,8.52h24.4v14.66c0,4.7,3.82,8.52,8.52,8.52h18.59c4.43,0,8.08-3.41,8.48-7.74h36.44
		c4.7,0,8.52-3.82,8.52-8.52v-6.91h23.59c4.7,0,8.52-3.82,8.52-8.52v-8.52H160.67z"/>
</g>
</svg>
